<svg xmlns="http://www.w3.org/2000/svg" fill="none" viewBox="0 0 512 512"><g clip-path="url(#a)"><path fill="#141111" d="M0 0h512v512H0z"/><g opacity=".05"><path fill="#DD2E44" d="M148.014 111.821c-1.672 1.672-2.941 3.688-4.002 5.898l-.119-.119-167.4925 377.306.1643.164c-3.1061 6.018 2.0907 18.263 12.7381 28.926 10.6474965 10.647 22.8928 15.844 28.911 12.738l.1493.149L395.669 369.376l-.12-.134c2.196-1.046 4.212-2.315 5.899-4.018 23.326-23.325-14.5-98.963-84.463-168.94-69.992-69.978-145.63-107.7891-168.971-84.463Z"/><path fill="#EA596E" d="M168.533 179.2-19.3883 485.423l-4.2112 9.483.1643.164c-3.1061 6.018 2.0907 18.263 12.7381 28.926 3.46456 3.464 7.0635 6.093 10.587769 8.318L228.266 253.867 168.533 179.2Z"/><path fill="#A0041E" d="M318.045 195.119c69.739 69.768 108.461 144.136 86.449 166.118-21.996 22.012-96.365-16.695-166.148-86.434-69.754-69.768-108.461-144.166-86.464-166.163 22.012-21.9968 96.38 16.71 166.163 86.479Z"/><path fill="#AA8DD8" d="M252.01 203.228c-2.972 2.404-6.854 3.658-10.961 3.21-12.962-1.403-23.863-5.913-31.494-13.036-8.079-7.542-12.066-17.667-10.976-27.806 1.911-17.801 19.771-34.138 50.22-30.853 11.843 1.27 17.129-2.538 17.308-4.36.209-1.807-4.136-6.66-15.978-7.945-12.963-1.403-23.864-5.913-31.51-13.036-8.079-7.542-12.081-17.6666-10.976-27.8063 1.942-17.8005 19.787-34.1376 50.206-30.8373 8.632.9258 13.186-.8512 15.113-2.0011 1.538-.9408 2.15-1.8368 2.21-2.3595.179-1.8069-4.107-6.6602-15.979-7.9445-8.198-.896-14.142-8.2432-13.231-16.4565.881-8.1984 8.213-14.12697 16.442-13.23097 30.419 3.27037 44.397 23.02717 42.47 40.84267-1.941 17.8304-19.787 34.1376-50.236 30.8672-8.631-.9408-13.141.8512-15.082 2.0011-1.538.9258-2.166 1.8368-2.225 2.3445-.194 1.8219 4.121 6.6603 15.993 7.9445 30.419 3.2854 44.397 23.0272 42.471 40.8422-1.927 17.801-19.772 34.138-50.206 30.838-8.632-.926-13.171.866-15.113 2.001-1.553.956-2.15 1.852-2.21 2.359-.194 1.807 4.122 6.661 15.979 7.945 8.183.896 14.142 8.258 13.231 16.456-.418 4.092-2.494 7.631-5.466 10.021Z"/><path fill="#77B255" d="M432.27 341.331c29.464-8.318 49.788 4.824 54.626 22.072 4.839 17.233-5.644 39.05-35.093 47.338-11.499 3.226-14.948 8.721-14.485 10.469.508 1.762 6.346 4.659 17.815 1.418 29.449-8.288 49.773 4.854 54.611 22.087 4.869 17.248-5.644 39.035-35.108 47.338-11.484 3.226-14.948 8.736-14.44 10.484.492 1.747 6.316 4.644 17.8 1.418 7.915-2.225 16.188 2.39 18.413 10.319 2.21 7.945-2.404 16.188-10.349 18.428-29.433 8.288-49.773-4.824-54.641-22.087-4.838-17.233 5.66-39.02 35.138-47.323 11.499-3.241 14.949-8.721 14.441-10.483-.478-1.748-6.302-4.66-17.771-1.434-29.478 8.303-49.788-4.809-54.641-22.086-4.853-17.234 5.645-39.021 35.108-47.339 11.469-3.211 14.919-8.736 14.441-10.468-.508-1.763-6.317-4.66-17.801-1.434-7.944 2.24-16.172-2.389-18.412-10.319-2.226-7.915 2.404-16.158 10.348-18.398Z"/><path fill="#AA8DD8" d="M317.881 301.056c-4.39 0-8.721-1.926-11.678-5.6-5.152-6.451-4.092-15.844 2.33-20.996 3.255-2.614 80.909-63.601 190.654-47.906 8.168 1.164 13.843 8.721 12.678 16.889-1.165 8.154-8.661 13.888-16.904 12.664-96.963-13.769-167.06 41.126-167.747 41.679-2.777 2.21-6.063 3.27-9.333 3.27Z"/><path fill="#77B255" d="M60.3258 238.933c-1.4187 0-2.8672-.209-4.3008-.627-7.8997-2.374-12.3797-10.692-10.0053-18.592 16.9194-56.343 32.256-146.257 13.4101-169.7023-2.1056-2.6582-5.2864-5.2715-12.5739-4.719-14.0074 1.0752-12.6784 30.6283-12.6634 30.927.6272 8.2282-5.5552 15.3962-13.7686 16.0085-8.3477.5077-15.39623-5.5552-16.00849-13.7835-1.53814-20.593 4.86826-60.256 40.20049-62.929 15.7696-1.1947 28.8662 4.2858 38.1099 15.7845 35.4072 44.0683-.5376 171.8228-8.0939 197.0008-1.9413 6.466-7.8848 10.632-14.3061 10.632Z"/><path fill="#5C913B" d="M355.199 164.267c12.372 0 22.4-10.029 22.4-22.4 0-12.372-10.028-22.4-22.4-22.4-12.371 0-22.4 10.028-22.4 22.4 0 12.371 10.029 22.4 22.4 22.4Z"/><path fill="#9266CC" d="M4.26608 298.667c16.49492 0 29.86662-13.372 29.86662-29.867S20.761 238.933 4.26608 238.933c-16.49488 0-29.86668 13.372-29.86668 29.867s13.3718 29.867 29.86668 29.867Z"/><path fill="#5C913B" d="M459.733 313.6c12.371 0 22.4-10.029 22.4-22.4 0-12.371-10.029-22.4-22.4-22.4-12.372 0-22.4 10.029-22.4 22.4 0 12.371 10.028 22.4 22.4 22.4ZM325.333 492.8c12.371 0 22.4-10.029 22.4-22.4 0-12.371-10.029-22.4-22.4-22.4-12.372 0-22.4 10.029-22.4 22.4 0 12.371 10.028 22.4 22.4 22.4Z"/><path fill="#FFCC4D" d="M392.533 89.6c16.495 0 29.867-13.3718 29.867-29.8667s-13.372-29.8667-29.867-29.8667-29.867 13.3718-29.867 29.8667S376.038 89.6 392.533 89.6ZM459.733 149.333c12.371 0 22.4-10.029 22.4-22.4 0-12.371-10.029-22.4-22.4-22.4-12.372 0-22.4 10.029-22.4 22.4 0 12.371 10.028 22.4 22.4 22.4ZM414.933 209.067c12.371 0 22.4-10.029 22.4-22.4 0-12.372-10.029-22.4-22.4-22.4-12.371 0-22.4 10.028-22.4 22.4 0 12.371 10.029 22.4 22.4 22.4ZM86.3994 373.333c12.3712 0 22.3996-10.029 22.3996-22.4 0-12.371-10.0284-22.4-22.3996-22.4s-22.4 10.029-22.4 22.4c0 12.371 10.0288 22.4 22.4 22.4Z"/></g><path fill="#DD2E44" d="M201.608 166.298c-.956.955-1.681 2.107-2.287 3.37l-.068-.068-95.71 215.603.094.094c-1.775 3.439 1.194 10.436 7.279 16.529 6.084 6.084 13.081 9.054 16.52 7.279l.085.085 215.604-95.718-.069-.077c1.255-.597 2.407-1.322 3.371-2.295 13.329-13.329-8.286-56.551-48.265-96.538-39.995-39.987-83.217-61.593-96.554-48.264Z"/><path fill="#EA596E" d="M213.333 204.8 105.949 379.785l-2.406 5.418.094.094c-1.775 3.439 1.194 10.436 7.279 16.529 1.979 1.98 4.036 3.482 6.05 4.753l130.5-159.112-34.133-42.667Z"/><path fill="#A0041E" d="M298.769 213.897c39.85 39.867 61.977 82.363 49.399 94.924-12.57 12.579-55.066-9.54-94.942-49.391-39.859-39.867-61.977-82.38-49.408-94.95 12.578-12.57 55.074 9.549 94.951 49.417Z"/><path fill="#AA8DD8" d="M261.034 218.53c-1.698 1.374-3.917 2.091-6.263 1.835-7.407-.802-13.637-3.379-17.997-7.45-4.617-4.309-6.895-10.095-6.272-15.889 1.092-10.172 11.298-19.507 28.698-17.63 6.766.726 9.787-1.45 9.89-2.491.119-1.033-2.364-3.806-9.131-4.54-7.407-.802-13.636-3.379-18.005-7.45-4.617-4.309-6.904-10.095-6.272-15.889 1.109-10.172 11.306-19.507 28.689-17.621 4.932.529 7.535-.487 8.635-1.144.879-.537 1.229-1.049 1.263-1.348.103-1.032-2.346-3.806-9.13-4.54-4.685-.512-8.081-4.71-7.561-9.403.504-4.685 4.694-8.073 9.395-7.561 17.383 1.869 25.37 13.158 24.269 23.339-1.109 10.189-11.306 19.507-28.706 17.638-4.932-.537-7.509.487-8.619 1.144-.879.529-1.237 1.049-1.271 1.339-.111 1.041 2.355 3.806 9.139 4.54 17.383 1.877 25.37 13.158 24.269 23.339-1.101 10.171-11.298 19.507-28.689 17.621-4.932-.529-7.527.495-8.636 1.144-.887.546-1.229 1.058-1.263 1.348-.111 1.032 2.355 3.806 9.131 4.54 4.676.512 8.081 4.718 7.56 9.403-.239 2.338-1.425 4.361-3.123 5.726Z"/><path fill="#77B255" d="M364.04 297.446c16.836-4.753 28.45 2.757 31.215 12.613 2.765 9.847-3.226 22.314-20.053 27.05-6.571 1.844-8.542 4.984-8.278 5.982.29 1.007 3.627 2.663 10.18.811 16.828-4.736 28.442 2.773 31.207 12.621 2.782 9.856-3.226 22.306-20.062 27.05-6.562 1.844-8.542 4.992-8.252 5.991.282.998 3.61 2.654 10.172.81 4.523-1.271 9.25 1.366 10.522 5.897 1.263 4.54-1.374 9.25-5.914 10.53-16.819 4.736-28.442-2.756-31.223-12.621-2.765-9.847 3.234-22.297 20.078-27.042 6.571-1.852 8.542-4.983 8.252-5.99-.273-.999-3.601-2.663-10.154-.819-16.845 4.744-28.451-2.748-31.224-12.621-2.773-9.848 3.226-22.298 20.062-27.051 6.554-1.835 8.525-4.992 8.252-5.982-.29-1.007-3.61-2.662-10.172-.819-4.54 1.28-9.242-1.365-10.522-5.896-1.271-4.523 1.374-9.234 5.914-10.514Z"/><path fill="#AA8DD8" d="M298.675 274.432c-2.509 0-4.984-1.101-6.673-3.2-2.944-3.686-2.339-9.054 1.331-11.998 1.86-1.493 46.233-36.343 108.945-27.375 4.668.666 7.91 4.984 7.245 9.651-.666 4.66-4.95 7.936-9.66 7.237-55.407-7.868-95.463 23.5-95.855 23.816-1.587 1.263-3.465 1.869-5.333 1.869Z"/><path fill="#77B255" d="M151.5 238.933c-.811 0-1.638-.119-2.457-.358-4.515-1.357-7.075-6.11-5.718-10.624 9.668-32.196 18.432-83.575 7.663-96.973-1.203-1.519-3.021-3.012-7.185-2.696-8.004.614-7.245 17.502-7.236 17.672.358 4.702-3.175 8.798-7.868 9.148-4.77.29-8.798-3.174-9.148-7.876-.879-11.768 2.782-34.432 22.972-35.96 9.011-.682 16.495 2.449 21.777 9.02 20.233 25.182-.307 98.184-4.625 112.572-1.109 3.695-4.506 6.075-8.175 6.075Z"/><path fill="#5C913B" d="M319.999 196.267c7.07 0 12.8-5.731 12.8-12.8 0-7.07-5.73-12.8-12.8-12.8-7.069 0-12.8 5.73-12.8 12.8 0 7.069 5.731 12.8 12.8 12.8Z"/><path fill="#9266CC" d="M119.466 273.067c9.426 0 17.067-7.641 17.067-17.067s-7.641-17.067-17.067-17.067-17.067 7.641-17.067 17.067 7.641 17.067 17.067 17.067Z"/><path fill="#5C913B" d="M379.733 281.6c7.069 0 12.8-5.731 12.8-12.8 0-7.069-5.731-12.8-12.8-12.8-7.07 0-12.8 5.731-12.8 12.8 0 7.069 5.73 12.8 12.8 12.8ZM302.933 384c7.069 0 12.8-5.731 12.8-12.8 0-7.069-5.731-12.8-12.8-12.8-7.07 0-12.8 5.731-12.8 12.8 0 7.069 5.73 12.8 12.8 12.8Z"/><path fill="#FFCC4D" d="M341.333 153.6c9.425 0 17.067-7.641 17.067-17.067 0-9.425-7.642-17.066-17.067-17.066-9.426 0-17.067 7.641-17.067 17.066 0 9.426 7.641 17.067 17.067 17.067ZM379.733 187.733c7.069 0 12.8-5.73 12.8-12.8 0-7.069-5.731-12.8-12.8-12.8-7.07 0-12.8 5.731-12.8 12.8 0 7.07 5.73 12.8 12.8 12.8ZM354.133 221.867c7.069 0 12.8-5.731 12.8-12.8 0-7.07-5.731-12.8-12.8-12.8-7.07 0-12.8 5.73-12.8 12.8 0 7.069 5.73 12.8 12.8 12.8ZM166.399 315.733c7.07 0 12.8-5.73 12.8-12.8 0-7.069-5.73-12.8-12.8-12.8-7.069 0-12.8 5.731-12.8 12.8 0 7.07 5.731 12.8 12.8 12.8Z"/></g><defs><clipPath id="a"><path fill="#fff" d="M0 0h512v512H0z"/></clipPath></defs></svg>