<svg xmlns="http://www.w3.org/2000/svg" fill="none" viewBox="0 0 512 512"><g clip-path="url(#a)"><path fill="#F2F7BA" d="M0 0h512v512H0z"/><path fill="#ADA185" d="M0 66h512v12H0zM0 158h512v12H0zM0 250h512v12H0zM0 342h512v12H0zM0 434h512v12H0z"/><path fill="url(#b)" d="M0 0h512v512H0z"/><g clip-path="url(#c)" filter="url(#d)"><path fill="url(#e)" fill-rule="evenodd" d="M92 384.521v-41.54c17.309-5.77 31.877-11.972 43.704-18.607 4.188-2.327 8.208-4.944 12.03-7.832 4.102-3.128 7.648-6.416 10.636-9.866 1.331-1.532 2.576-3.135 3.73-4.804 5.77-8.365 8.655-18.318 8.655-29.857.03-2.752-.346-5.493-1.117-8.135-1.381-4.65-4.357-8.664-8.403-11.337-3.341-2.269-6.741-4.451-10.195-6.543-3.583-2.187-7.411-4.405-11.484-6.655-.13-.072-.26-.145-.39-.217-7.592-4.228-14.352-9.803-19.948-16.452-.724-.848-1.431-1.711-2.12-2.587-4.558-5.799-7.481-13.68-8.767-23.644-.522-4.214-.773-8.458-.753-12.705-.051-5.732.618-11.448 1.99-17.014 2.3-9.521 7.502-18.092 14.886-24.526 11.25-9.809 25.53-14.713 42.839-14.713 9.286-.106 18.511 1.508 27.209 4.76 10.193 3.969 19.269 10.354 26.448 18.607 12.71 14.303 19.588 33.463 20.632 57.482.093 2.186.14 4.373.138 6.56 0 36.925-11.395 70.677-34.184 101.256-17.58 23.592-44.521 42.548-80.823 56.868-11.36 4.443-22.948 8.282-34.713 11.501Zm178.28 0v-41.54c17.308-5.77 31.732-11.972 43.271-18.607 9.803-5.637 17.525-11.9 23.168-18.789.982-1.199 1.915-2.437 2.795-3.713 5.77-8.365 8.655-18.318 8.655-29.857.03-2.752-.346-5.493-1.117-8.135-1.381-4.65-4.356-8.664-8.403-11.337-3.341-2.269-6.741-4.451-10.195-6.543-3.583-2.187-7.411-4.405-11.484-6.655-.13-.072-.26-.145-.39-.217-7.592-4.228-14.352-9.803-19.948-16.452-.724-.848-1.431-1.711-2.12-2.587-4.558-5.799-7.48-13.68-8.767-23.644-.522-4.214-.773-8.458-.753-12.705-.055-5.858.664-11.698 2.138-17.369 2.43-9.434 7.731-17.881 15.171-24.171 9.072-7.653 20.173-12.503 31.952-13.96 3.751-.511 7.533-.763 11.32-.753 9.285-.106 18.511 1.508 27.209 4.76 10.193 3.969 19.269 10.354 26.448 18.607 12.71 14.303 19.587 33.463 20.632 57.482.093 2.186.139 4.373.138 6.56 0 36.925-11.395 70.677-34.185 101.256-17.58 23.592-44.521 42.548-80.823 56.868-11.36 4.443-22.947 8.282-34.712 11.501Z" clip-rule="evenodd"/></g></g><defs><clipPath id="a"><path fill="#fff" d="M0 0h512v512H0z"/></clipPath><clipPath id="c"><path fill="#fff" d="M0 0h328v257.043H0z" transform="rotate(180 210 192.2605)"/></clipPath><radialGradient id="b" cx="0" cy="0" r="1" gradientTransform="rotate(90 0 256) scale(256)" gradientUnits="userSpaceOnUse"><stop stop-color="#fff" stop-opacity=".7"/><stop offset=".9" stop-color="#fff" stop-opacity=".1"/></radialGradient><linearGradient id="e" x1="256" x2="256" y1="127.482" y2="384.521" gradientUnits="userSpaceOnUse"><stop stop-color="#887A5E"/><stop offset="1" stop-color="#6A5F49"/></linearGradient><filter id="d" width="328" height="257.043" x="92" y="127.479" color-interpolation-filters="sRGB" filterUnits="userSpaceOnUse"><feFlood flood-opacity="0" result="BackgroundImageFix"/><feBlend in="SourceGraphic" in2="BackgroundImageFix" result="shape"/><feColorMatrix in="SourceAlpha" result="hardAlpha" values="0 0 0 0 0 0 0 0 0 0 0 0 0 0 0 0 0 0 127 0"/><feOffset dy="7.32961"/><feComposite in2="hardAlpha" k2="-1" k3="1" operator="arithmetic"/><feColorMatrix values="0 0 0 0 1 0 0 0 0 1 0 0 0 0 1 0 0 0 0.2 0"/><feBlend in2="shape" result="effect1_innerShadow_601_11509"/><feColorMatrix in="SourceAlpha" result="hardAlpha" values="0 0 0 0 0 0 0 0 0 0 0 0 0 0 0 0 0 0 127 0"/><feOffset dy="-3.6648"/><feComposite in2="hardAlpha" k2="-1" k3="1" operator="arithmetic"/><feColorMatrix values="0 0 0 0 0 0 0 0 0 0 0 0 0 0 0 0 0 0 0.25 0"/><feBlend in2="effect1_innerShadow_601_11509" result="effect2_innerShadow_601_11509"/></filter></defs></svg>