<svg xmlns="http://www.w3.org/2000/svg" fill="none" viewBox="0 0 512 512"><path fill="#76B3E1" d="M512 119S341-7 209 22l-9 3c-20 7-36 16-45 29l-7 10-48 84 84 16c35 22 80 32 122 22l148 29 58-96Z"/><path fill="url(#a)" d="M512 119S341-7 209 22l-9 3c-20 7-36 16-45 29l-7 10-48 84 84 16c35 22 80 32 122 22l148 29 58-96Z" opacity=".3"/><path fill="#518AC8" d="m155 119-13 3c-55 16-71 68-42 113 32 42 100 64 154 48l200-68S283 90 155 119Z"/><path fill="url(#b)" d="m155 119-13 3c-55 16-71 68-42 113 32 42 100 64 154 48l200-68S283 90 155 119Z" opacity=".3"/><path fill="url(#c)" d="M419 262a145 145 0 0 0-155-48L64 278 0 391l361 61 64-116c13-22 10-48-6-74Z"/><path fill="url(#d)" d="M354 376a145 145 0 0 0-154-48L0 392s171 129 303 97l9-3c55-16 74-68 42-110Z"/><defs><linearGradient id="a" x1="75.7" x2="476.6" y1="15.7" y2="210.5" gradientUnits="userSpaceOnUse"><stop offset=".1" stop-color="#76B3E1"/><stop offset=".3" stop-color="#DCF2FD"/><stop offset="1" stop-color="#76B3E1"/></linearGradient><linearGradient id="b" x1="295.6" x2="225.4" y1="111" y2="344.8" gradientUnits="userSpaceOnUse"><stop stop-color="#76B3E1"/><stop offset=".5" stop-color="#4377BB"/><stop offset="1" stop-color="#1F3B77"/></linearGradient><linearGradient id="c" x1="46.4" x2="451.8" y1="211.5" y2="487.1" gradientUnits="userSpaceOnUse"><stop stop-color="#315AA9"/><stop offset=".5" stop-color="#518AC8"/><stop offset="1" stop-color="#315AA9"/></linearGradient><linearGradient id="d" x1="229.3" x2="65.7" y1="245.9" y2="845.8" gradientUnits="userSpaceOnUse"><stop stop-color="#4377BB"/><stop offset=".5" stop-color="#1A336B"/><stop offset="1" stop-color="#1A336B"/></linearGradient></defs></svg>