<svg width="512" height="512" viewBox="0 0 512 512" fill="none" xmlns="http://www.w3.org/2000/svg">
<path d="M382.134 475.437C378.989 498.795 356.129 517.043 333.411 510.743C301.042 501.826 263.564 487.918 229.841 485.326C225.395 484.984 178.156 481.403 178.156 481.403C169.8 480.808 161.957 477.157 156.121 471.148L67.0634 379.448C57.3307 369.428 54.6962 354.484 60.4152 341.74C60.4152 341.74 115.484 220.728 117.529 214.435C119.574 208.142 127.08 153.256 131.528 123.77C132.707 115.956 136.565 108.793 142.441 103.508L247.794 8.74822C262.451 -4.43479 285.203 -2.4812 297.396 13.0074L385.898 125.419C390.905 131.781 393.471 139.688 393.509 147.783C393.61 169.08 395.368 212.805 407.144 240.968C418.6 268.361 439.625 297.946 450.614 312.504C454.83 318.091 455.477 325.646 451.914 331.673C444.159 344.801 428.837 370.009 407.144 402.351C392.189 424.651 385.259 452.218 382.134 475.437Z" fill="#6C31E3"/>
<path d="M165.718 478.079C207.076 394.115 205.922 333.963 188.324 291.034C172.127 251.53 142.003 226.613 118.259 211.149C117.759 213.383 117.034 215.564 116.095 217.658L60.4137 341.74C54.6947 354.484 57.3292 369.428 67.0619 379.448L156.12 471.148C158.914 474.024 162.168 476.361 165.718 478.079Z" fill="url(#paint0_radial_1_114)"/>
<path d="M333.422 510.731C356.135 517.031 378.992 498.783 382.136 475.424C384.845 455.314 390.404 431.94 401.561 411.554C375.962 356.452 345.007 327.877 311.072 315.212C275.151 301.805 235.892 306.225 196.114 315.885C205.006 356.353 199.683 409.204 165.764 478.072C169.627 479.942 173.838 481.081 178.19 481.391C178.19 481.391 202.665 483.452 231.773 485.512C260.881 487.572 304.197 502.626 333.422 510.731Z" fill="url(#paint1_radial_1_114)"/>
<path d="M278.269 307.659C289.445 308.826 300.399 311.235 311.06 315.213C345.002 327.879 375.964 356.455 401.567 411.553C403.288 408.408 405.144 405.333 407.144 402.351C428.835 370.009 444.158 344.801 451.913 331.673C455.476 325.646 454.829 318.091 450.612 312.504C439.624 297.946 418.599 268.361 407.144 240.968C395.367 212.805 393.609 169.08 393.509 147.783C393.47 139.688 390.904 131.781 385.897 125.419L297.395 13.0073C296.923 12.4062 296.433 11.8256 295.929 11.2654C302.423 32.5466 301.983 49.6659 297.977 65.2287C294.263 79.6557 287.483 92.7451 280.322 106.571L280.32 106.573C277.918 111.21 275.474 115.93 273.087 120.812C263.585 140.247 255.007 162.241 253.742 191.734C252.475 221.228 258.522 258.22 278.272 307.658L278.269 307.659Z" fill="url(#paint2_radial_1_114)"/>
<path d="M278.257 307.658C258.508 258.221 252.46 221.228 253.726 191.733C254.992 162.238 263.571 140.244 273.074 120.807C275.461 115.924 277.906 111.204 280.309 106.566C287.469 92.7399 294.249 79.6517 297.962 65.226C301.969 49.6597 302.409 32.5357 295.909 11.2456C283.424 -2.61128 261.871 -3.91716 247.79 8.74822L142.437 103.508C136.561 108.793 132.703 115.956 131.524 123.77L118.699 208.786C118.58 209.575 118.433 210.359 118.259 211.138C142.004 226.601 172.133 251.521 188.331 291.03C191.495 298.748 194.127 307.019 196.077 315.888C224.052 309.094 251.772 304.893 278.257 307.658Z" fill="url(#paint3_radial_1_114)"/>
<path fill-rule="evenodd" clip-rule="evenodd" d="M253.933 189.79C252.663 219.048 256.315 252.61 276.022 301.944L269.834 301.386C252.153 249.904 248.305 223.509 249.592 193.847C250.881 164.17 260.47 141.35 270.026 121.884C272.446 116.954 278.093 107.696 280.509 103.049C287.664 89.2908 292.426 82.0228 296.515 69.4468C302.229 51.8747 300.993 43.5519 300.341 35.2692C304.878 65.2105 287.659 91.2462 274.641 117.763C265.159 137.08 255.201 160.547 253.933 189.79Z" fill="url(#paint4_radial_1_114)"/>
<path fill-rule="evenodd" clip-rule="evenodd" d="M194.151 293.21C196.488 298.615 198.696 302.979 200.09 309.667L194.926 310.828C192.777 303.019 191.117 297.463 188.143 290.765C170.347 248.78 141.787 227.184 118.447 211.344C146.639 226.511 175.574 250.251 194.151 293.21Z" fill="url(#paint5_radial_1_114)"/>
<path fill-rule="evenodd" clip-rule="evenodd" d="M200.39 314.949C210.251 360.838 199.25 419.137 166.831 475.807C193.929 419.644 207.065 365.703 196.125 315.864L200.39 314.949Z" fill="url(#paint6_radial_1_114)"/>
<path fill-rule="evenodd" clip-rule="evenodd" d="M312.285 310.821C365.439 330.713 385.905 374.389 401.203 410.822C382.309 372.671 356.043 330.538 310.378 314.9C275.631 303 246.287 304.411 196.121 315.796L195.003 310.821C248.244 298.691 276.08 297.272 312.285 310.821Z" fill="url(#paint7_radial_1_114)"/>
<defs>
<radialGradient id="paint0_radial_1_114" cx="0" cy="0" r="1" gradientUnits="userSpaceOnUse" gradientTransform="translate(161.27 469.791) rotate(-104.574) scale(232.965 155.247)">
<stop stop-color="white" stop-opacity="0.4"/>
<stop offset="1" stop-opacity="0.1"/>
</radialGradient>
<radialGradient id="paint1_radial_1_114" cx="0" cy="0" r="1" gradientTransform="matrix(-96.2576 -163.001 187.145 -110.545 335.11 511.988)" gradientUnits="userSpaceOnUse">
<stop stop-color="white" stop-opacity="0.3"/>
<stop offset="1" stop-opacity="0.25"/>
</radialGradient>
<radialGradient id="paint2_radial_1_114" cx="0" cy="0" r="1" gradientUnits="userSpaceOnUse" gradientTransform="translate(359.825 374) rotate(-82.4846) scale(382.284 282.434)">
<stop stop-color="white" stop-opacity="0.55"/>
<stop offset="1" stop-color="white" stop-opacity="0.05"/>
</radialGradient>
<radialGradient id="paint3_radial_1_114" cx="0" cy="0" r="1" gradientUnits="userSpaceOnUse" gradientTransform="translate(175.23 306.884) rotate(-77.7214) scale(326.45 222.631)">
<stop stop-color="white" stop-opacity="0.83"/>
<stop offset="1" stop-color="white" stop-opacity="0.4"/>
</radialGradient>
<radialGradient id="paint4_radial_1_114" cx="0" cy="0" r="1" gradientUnits="userSpaceOnUse" gradientTransform="translate(309.825 128) rotate(102.236) scale(169.859 114.542)">
<stop stop-color="white" stop-opacity="0"/>
<stop offset="1" stop-color="white" stop-opacity="0.17"/>
</radialGradient>
<radialGradient id="paint5_radial_1_114" cx="0" cy="0" r="1" gradientUnits="userSpaceOnUse" gradientTransform="translate(110.824 220) rotate(45.3237) scale(125.16 266.579)">
<stop stop-color="white" stop-opacity="0.2"/>
<stop offset="1" stop-color="white" stop-opacity="0.44"/>
</radialGradient>
<radialGradient id="paint6_radial_1_114" cx="0" cy="0" r="1" gradientUnits="userSpaceOnUse" gradientTransform="translate(205.316 279.224) rotate(80.2016) scale(146.696 311.515)">
<stop stop-color="white" stop-opacity="0.25"/>
<stop offset="1" stop-color="white" stop-opacity="0.3"/>
</radialGradient>
<radialGradient id="paint7_radial_1_114" cx="0" cy="0" r="1" gradientUnits="userSpaceOnUse" gradientTransform="translate(399.826 398.999) rotate(-152.297) scale(223.528 703.43)">
<stop stop-color="white" stop-opacity="0.21"/>
<stop offset="0.46738" stop-color="white" stop-opacity="0.19"/>
<stop offset="1" stop-color="white" stop-opacity="0.29"/>
</radialGradient>
</defs>
</svg>
